<svg width="20" height="20" viewBox="0 0 20 20" fill="none" xmlns="http://www.w3.org/2000/svg">
<mask id="path-1-inside-1_18420_66" fill="white">
<path d="M9.99984 6C11.0607 6 12.0781 6.42143 12.8283 7.17157C13.5784 7.92172 13.9998 8.93913 13.9998 10C13.9998 11.0609 13.5784 12.0783 12.8283 12.8284C12.0781 13.5786 11.0607 14 9.99984 14C8.93897 14 7.92156 13.5786 7.17141 12.8284C6.42127 12.0783 5.99984 11.0609 5.99984 10C5.99984 8.93913 6.42127 7.92172 7.17141 7.17157C7.92156 6.42143 8.93897 6 9.99984 6ZM9.99984 8C9.46941 8 8.9607 8.21071 8.58563 8.58579C8.21055 8.96086 7.99984 9.46957 7.99984 10C7.99984 10.5304 8.21055 11.0391 8.58563 11.4142C8.9607 11.7893 9.46941 12 9.99984 12C10.5303 12 11.039 11.7893 11.4141 11.4142C11.7891 11.0391 11.9998 10.5304 11.9998 10C11.9998 9.46957 11.7891 8.96086 11.4141 8.58579C11.039 8.21071 10.5303 8 9.99984 8ZM7.99984 20C7.74984 20 7.53984 19.82 7.49984 19.58L7.12984 16.93C6.49984 16.68 5.95984 16.34 5.43984 15.94L2.94984 16.95C2.72984 17.03 2.45984 16.95 2.33984 16.73L0.339839 13.27C0.209839 13.05 0.26984 12.78 0.45984 12.63L2.56984 10.97L2.49984 10L2.56984 9L0.45984 7.37C0.26984 7.22 0.209839 6.95 0.339839 6.73L2.33984 3.27C2.45984 3.05 2.72984 2.96 2.94984 3.05L5.43984 4.05C5.95984 3.66 6.49984 3.32 7.12984 3.07L7.49984 0.42C7.53984 0.18 7.74984 0 7.99984 0H11.9998C12.2498 0 12.4598 0.18 12.4998 0.42L12.8698 3.07C13.4998 3.32 14.0398 3.66 14.5598 4.05L17.0498 3.05C17.2698 2.96 17.5398 3.05 17.6598 3.27L19.6598 6.73C19.7898 6.95 19.7298 7.22 19.5398 7.37L17.4298 9L17.4998 10L17.4298 11L19.5398 12.63C19.7298 12.78 19.7898 13.05 19.6598 13.27L17.6598 16.73C17.5398 16.95 17.2698 17.04 17.0498 16.95L14.5598 15.95C14.0398 16.34 13.4998 16.68 12.8698 16.93L12.4998 19.58C12.4598 19.82 12.2498 20 11.9998 20H7.99984ZM9.24984 2L8.87984 4.61C7.67984 4.86 6.61984 5.5 5.84984 6.39L3.43984 5.35L2.68984 6.65L4.79984 8.2C4.39984 9.37 4.39984 10.64 4.79984 11.8L2.67984 13.36L3.42984 14.66L5.85984 13.62C6.62984 14.5 7.67984 15.14 8.86984 15.38L9.23984 18H10.7598L11.1298 15.39C12.3198 15.14 13.3698 14.5 14.1398 13.62L16.5698 14.66L17.3198 13.36L15.1998 11.81C15.5998 10.64 15.5998 9.37 15.1998 8.2L17.3098 6.65L16.5598 5.35L14.1498 6.39C13.3798 5.5 12.3198 4.86 11.1198 4.62L10.7498 2H9.24984Z"/>
</mask>
<path d="M9.99984 6C11.0607 6 12.0781 6.42143 12.8283 7.17157C13.5784 7.92172 13.9998 8.93913 13.9998 10C13.9998 11.0609 13.5784 12.0783 12.8283 12.8284C12.0781 13.5786 11.0607 14 9.99984 14C8.93897 14 7.92156 13.5786 7.17141 12.8284C6.42127 12.0783 5.99984 11.0609 5.99984 10C5.99984 8.93913 6.42127 7.92172 7.17141 7.17157C7.92156 6.42143 8.93897 6 9.99984 6ZM9.99984 8C9.46941 8 8.9607 8.21071 8.58563 8.58579C8.21055 8.96086 7.99984 9.46957 7.99984 10C7.99984 10.5304 8.21055 11.0391 8.58563 11.4142C8.9607 11.7893 9.46941 12 9.99984 12C10.5303 12 11.039 11.7893 11.4141 11.4142C11.7891 11.0391 11.9998 10.5304 11.9998 10C11.9998 9.46957 11.7891 8.96086 11.4141 8.58579C11.039 8.21071 10.5303 8 9.99984 8ZM7.99984 20C7.74984 20 7.53984 19.82 7.49984 19.58L7.12984 16.93C6.49984 16.68 5.95984 16.34 5.43984 15.94L2.94984 16.95C2.72984 17.03 2.45984 16.95 2.33984 16.73L0.339839 13.27C0.209839 13.05 0.26984 12.78 0.45984 12.63L2.56984 10.97L2.49984 10L2.56984 9L0.45984 7.37C0.26984 7.22 0.209839 6.95 0.339839 6.73L2.33984 3.27C2.45984 3.05 2.72984 2.96 2.94984 3.05L5.43984 4.05C5.95984 3.66 6.49984 3.32 7.12984 3.07L7.49984 0.42C7.53984 0.18 7.74984 0 7.99984 0H11.9998C12.2498 0 12.4598 0.18 12.4998 0.42L12.8698 3.07C13.4998 3.32 14.0398 3.66 14.5598 4.05L17.0498 3.05C17.2698 2.96 17.5398 3.05 17.6598 3.27L19.6598 6.73C19.7898 6.95 19.7298 7.22 19.5398 7.37L17.4298 9L17.4998 10L17.4298 11L19.5398 12.63C19.7298 12.78 19.7898 13.05 19.6598 13.27L17.6598 16.73C17.5398 16.95 17.2698 17.04 17.0498 16.95L14.5598 15.95C14.0398 16.34 13.4998 16.68 12.8698 16.93L12.4998 19.58C12.4598 19.82 12.2498 20 11.9998 20H7.99984ZM9.24984 2L8.87984 4.61C7.67984 4.86 6.61984 5.5 5.84984 6.39L3.43984 5.35L2.68984 6.65L4.79984 8.2C4.39984 9.37 4.39984 10.64 4.79984 11.8L2.67984 13.36L3.42984 14.66L5.85984 13.62C6.62984 14.5 7.67984 15.14 8.86984 15.38L9.23984 18H10.7598L11.1298 15.39C12.3198 15.14 13.3698 14.5 14.1398 13.62L16.5698 14.66L17.3198 13.36L15.1998 11.81C15.5998 10.64 15.5998 9.37 15.1998 8.2L17.3098 6.65L16.5598 5.35L14.1498 6.39C13.3798 5.5 12.3198 4.86 11.1198 4.62L10.7498 2H9.24984Z" fill="#1B1B1B"/>
<path d="M13.9998 10H14.9998H13.9998ZM9.99984 14V15V14ZM5.99984 10H4.99984H5.99984ZM7.49984 19.58L6.50945 19.7183L6.51127 19.7314L6.51345 19.7444L7.49984 19.58ZM7.12984 16.93L8.12023 16.7917L8.03974 16.2152L7.49868 16.0005L7.12984 16.93ZM5.43984 15.94L6.04955 15.1474L5.59518 14.7979L5.06396 15.0133L5.43984 15.94ZM2.94984 16.95L3.29158 17.8898L3.30877 17.8835L3.32572 17.8767L2.94984 16.95ZM2.33984 16.73L3.21774 16.2511L3.21181 16.2403L3.20561 16.2296L2.33984 16.73ZM0.339839 13.27L1.20565 12.7695L1.20077 12.7613L0.339839 13.27ZM0.45984 12.63L-0.158476 11.8441L-0.159805 11.8451L0.45984 12.63ZM2.56984 10.97L3.18815 11.7559L3.60546 11.4276L3.56725 10.898L2.56984 10.97ZM2.49984 10L1.50228 9.93017L1.49732 10.0011L1.50243 10.072L2.49984 10ZM2.56984 9L3.5674 9.06983L3.60478 8.53586L3.18118 8.20863L2.56984 9ZM0.45984 7.37L-0.159839 8.15493L-0.151501 8.16137L0.45984 7.37ZM0.339839 6.73L1.20081 7.23875L1.20561 7.23044L0.339839 6.73ZM2.33984 3.27L3.20561 3.77044L3.21181 3.75972L3.21774 3.74885L2.33984 3.27ZM2.94984 3.05L2.5712 3.97557L2.57716 3.97796L2.94984 3.05ZM5.43984 4.05L5.06716 4.97796L5.58952 5.18774L6.03984 4.85L5.43984 4.05ZM7.12984 3.07L7.49868 3.99949L8.03974 3.78479L8.12023 3.20828L7.12984 3.07ZM7.49984 0.42L6.51345 0.255601L6.51127 0.268634L6.50945 0.281719L7.49984 0.42ZM12.4998 0.42L13.4902 0.281719L13.4884 0.268634L13.4862 0.255601L12.4998 0.42ZM12.8698 3.07L11.8794 3.20828L11.9599 3.78479L12.501 3.99949L12.8698 3.07ZM14.5598 4.05L13.9598 4.85L14.4102 5.18774L14.9325 4.97796L14.5598 4.05ZM17.0498 3.05L17.4225 3.97798L17.4285 3.97555L17.0498 3.05ZM17.6598 3.27L16.7819 3.74885L16.7879 3.75972L16.7941 3.77044L17.6598 3.27ZM19.6598 6.73L18.794 7.23047L18.7989 7.23873L19.6598 6.73ZM19.5398 7.37L20.1512 8.16141L20.1595 8.15488L19.5398 7.37ZM17.4298 9L16.8185 8.20863L16.3949 8.53586L16.4323 9.06983L17.4298 9ZM17.4998 10L18.4974 10.0698L18.5023 10L18.4974 9.93017L17.4998 10ZM17.4298 11L16.4323 10.9302L16.3949 11.4641L16.8185 11.7914L17.4298 11ZM19.5398 12.63L20.1595 11.8451L20.1512 11.8386L19.5398 12.63ZM19.6598 13.27L18.7989 12.7612L18.7941 12.7696L19.6598 13.27ZM17.6598 16.73L16.7941 16.2296L16.7879 16.2403L16.7819 16.2511L17.6598 16.73ZM17.0498 16.95L17.4285 16.0244L17.4225 16.022L17.0498 16.95ZM14.5598 15.95L14.9325 15.022L14.4102 14.8123L13.9598 15.15L14.5598 15.95ZM12.8698 16.93L12.501 16.0005L11.9599 16.2152L11.8794 16.7917L12.8698 16.93ZM12.4998 19.58L13.4862 19.7444L13.4884 19.7314L13.4902 19.7183L12.4998 19.58ZM9.24984 2V1H8.3816L8.25974 1.85964L9.24984 2ZM8.87984 4.61L9.08379 5.58898L9.77136 5.44574L9.86994 4.75036L8.87984 4.61ZM5.84984 6.39L5.45362 7.30816L6.12655 7.59855L6.60609 7.04428L5.84984 6.39ZM3.43984 5.35L3.83606 4.43184L3.01858 4.07907L2.57365 4.85028L3.43984 5.35ZM2.68984 6.65L1.82365 6.15028L1.37622 6.92584L2.09781 7.45592L2.68984 6.65ZM4.79984 8.2L5.74607 8.5235L5.98359 7.82876L5.39187 7.39408L4.79984 8.2ZM4.79984 11.8L5.39252 12.6054L5.98502 12.1694L5.74521 11.474L4.79984 11.8ZM2.67984 13.36L2.08716 12.5546L1.36658 13.0848L1.81365 13.8597L2.67984 13.36ZM3.42984 14.66L2.56365 15.1597L3.00724 15.9286L3.8233 15.5793L3.42984 14.66ZM5.85984 13.62L6.61242 12.9615L6.13412 12.4149L5.46638 12.7007L5.85984 13.62ZM8.86984 15.38L9.86001 15.2402L9.76108 14.5396L9.06754 14.3997L8.86984 15.38ZM9.23984 18L8.24966 18.1398L8.37114 19H9.23984V18ZM10.7598 18V19H11.6281L11.7499 18.1404L10.7598 18ZM11.1298 15.39L10.9242 14.4114L10.2381 14.5555L10.1397 15.2496L11.1298 15.39ZM14.1398 13.62L14.5333 12.7007L13.8656 12.4149L13.3873 12.9615L14.1398 13.62ZM16.5698 14.66L16.1764 15.5793L16.9924 15.9286L17.436 15.1597L16.5698 14.66ZM17.3198 13.36L18.186 13.8597L18.6345 13.0824L17.91 12.5527L17.3198 13.36ZM15.1998 11.81L14.2536 11.4865L14.0155 12.1829L14.6096 12.6173L15.1998 11.81ZM15.1998 8.2L14.6078 7.39408L14.0161 7.82876L14.2536 8.5235L15.1998 8.2ZM17.3098 6.65L17.9019 7.45592L18.6235 6.92584L18.176 6.15028L17.3098 6.65ZM16.5598 5.35L17.426 4.85028L16.9811 4.07907L16.1636 4.43184L16.5598 5.35ZM14.1498 6.39L13.3936 7.04428L13.8731 7.59855L14.5461 7.30816L14.1498 6.39ZM11.1198 4.62L10.1297 4.75983L10.2288 5.46159L10.9237 5.60058L11.1198 4.62ZM10.7498 2L11.74 1.86017L11.6185 1H10.7498V2ZM9.99984 7C10.7955 7 11.5586 7.31607 12.1212 7.87868L13.5354 6.46447C12.5977 5.52678 11.3259 5 9.99984 5V7ZM12.1212 7.87868C12.6838 8.44129 12.9998 9.20435 12.9998 10H14.9998C14.9998 8.67392 14.4731 7.40215 13.5354 6.46447L12.1212 7.87868ZM12.9998 10C12.9998 10.7956 12.6838 11.5587 12.1212 12.1213L13.5354 13.5355C14.4731 12.5979 14.9998 11.3261 14.9998 10H12.9998ZM12.1212 12.1213C11.5586 12.6839 10.7955 13 9.99984 13V15C11.3259 15 12.5977 14.4732 13.5354 13.5355L12.1212 12.1213ZM9.99984 13C9.20419 13 8.44113 12.6839 7.87852 12.1213L6.46431 13.5355C7.40199 14.4732 8.67376 15 9.99984 15V13ZM7.87852 12.1213C7.31591 11.5587 6.99984 10.7956 6.99984 10H4.99984C4.99984 11.3261 5.52662 12.5979 6.46431 13.5355L7.87852 12.1213ZM6.99984 10C6.99984 9.20435 7.31591 8.44129 7.87852 7.87868L6.46431 6.46447C5.52662 7.40215 4.99984 8.67392 4.99984 10H6.99984ZM7.87852 7.87868C8.44113 7.31607 9.20419 7 9.99984 7V5C8.67376 5 7.40199 5.52678 6.46431 6.46447L7.87852 7.87868ZM9.99984 7C9.20419 7 8.44113 7.31607 7.87852 7.87868L9.29273 9.29289C9.48027 9.10536 9.73462 9 9.99984 9V7ZM7.87852 7.87868C7.31591 8.44129 6.99984 9.20435 6.99984 10H8.99984C8.99984 9.73479 9.1052 9.48043 9.29273 9.29289L7.87852 7.87868ZM6.99984 10C6.99984 10.7957 7.31591 11.5587 7.87852 12.1213L9.29273 10.7071C9.1052 10.5196 8.99984 10.2652 8.99984 10H6.99984ZM7.87852 12.1213C8.44113 12.6839 9.20419 13 9.99984 13V11C9.73462 11 9.48027 10.8946 9.29273 10.7071L7.87852 12.1213ZM9.99984 13C10.7955 13 11.5586 12.6839 12.1212 12.1213L10.7069 10.7071C10.5194 10.8946 10.2651 11 9.99984 11V13ZM12.1212 12.1213C12.6838 11.5587 12.9998 10.7957 12.9998 10H10.9998C10.9998 10.2652 10.8945 10.5196 10.7069 10.7071L12.1212 12.1213ZM12.9998 10C12.9998 9.20435 12.6838 8.44129 12.1212 7.87868L10.7069 9.29289C10.8945 9.48043 10.9998 9.73478 10.9998 10H12.9998ZM12.1212 7.87868C11.5586 7.31607 10.7955 7 9.99984 7V9C10.2651 9 10.5194 9.10536 10.7069 9.29289L12.1212 7.87868ZM7.99984 19C8.23658 19 8.44552 19.1713 8.48623 19.4156L6.51345 19.7444C6.63415 20.4687 7.2631 21 7.99984 21V19ZM8.49023 19.4417L8.12023 16.7917L6.13945 17.0683L6.50945 19.7183L8.49023 19.4417ZM7.49868 16.0005C6.97929 15.7944 6.52015 15.5094 6.04955 15.1474L4.83013 16.7326C5.39953 17.1706 6.02039 17.5656 6.76099 17.8595L7.49868 16.0005ZM5.06396 15.0133L2.57396 16.0233L3.32572 17.8767L5.81572 16.8667L5.06396 15.0133ZM2.6081 16.0102C2.71858 15.97 2.83063 15.9721 2.93002 16.006C3.03482 16.0417 3.14694 16.1214 3.21774 16.2511L1.46194 17.2089C1.84574 17.9125 2.66219 18.1187 3.29158 17.8898L2.6081 16.0102ZM3.20561 16.2296L1.20561 12.7696L-0.525929 13.7704L1.47407 17.2304L3.20561 16.2296ZM1.20077 12.7613C1.33509 12.9886 1.26705 13.2668 1.07948 13.4149L-0.159805 11.8451C-0.727367 12.2932 -0.915412 13.1114 -0.521087 13.7787L1.20077 12.7613ZM1.07815 13.4159L3.18815 11.7559L1.95152 10.1841L-0.158475 11.8441L1.07815 13.4159ZM3.56725 10.898L3.49725 9.92802L1.50243 10.072L1.57243 11.042L3.56725 10.898ZM3.4974 10.0698L3.5674 9.06983L1.57228 8.93017L1.50228 9.93017L3.4974 10.0698ZM3.18118 8.20863L1.07118 6.57863L-0.151501 8.16137L1.9585 9.79137L3.18118 8.20863ZM1.07948 6.58512C1.26705 6.73319 1.33509 7.01141 1.20077 7.23873L-0.521087 6.22127C-0.915412 6.88859 -0.727367 7.70681 -0.159805 8.15488L1.07948 6.58512ZM1.20561 7.23044L3.20561 3.77044L1.47407 2.76956L-0.525929 6.22956L1.20561 7.23044ZM3.21774 3.74885C3.09135 3.98056 2.81793 4.07648 2.57121 3.97555L3.32847 2.12445C2.64175 1.84352 1.82833 2.11944 1.46194 2.79115L3.21774 3.74885ZM2.57716 3.97796L5.06716 4.97796L5.81251 3.12204L3.32251 2.12204L2.57716 3.97796ZM6.03984 4.85C6.5168 4.49228 6.97827 4.206 7.49868 3.99949L6.76099 2.14051C6.0214 2.434 5.40288 2.82772 4.83984 3.25L6.03984 4.85ZM8.12023 3.20828L8.49023 0.558281L6.50945 0.281719L6.13945 2.93172L8.12023 3.20828ZM8.48623 0.584399C8.44552 0.828651 8.23658 1 7.99984 1V-1C7.2631 -1 6.63415 -0.468651 6.51345 0.255601L8.48623 0.584399ZM7.99984 1H11.9998V-1H7.99984V1ZM11.9998 1C11.7631 1 11.5542 0.828651 11.5134 0.584399L13.4862 0.255601C13.3655 -0.468651 12.7366 -1 11.9998 -1V1ZM11.5094 0.558281L11.8794 3.20828L13.8602 2.93172L13.4902 0.281719L11.5094 0.558281ZM12.501 3.99949C13.0214 4.206 13.4829 4.49228 13.9598 4.85L15.1598 3.25C14.5968 2.82772 13.9783 2.434 13.2387 2.14051L12.501 3.99949ZM14.9325 4.97796L17.4225 3.97796L16.6772 2.12204L14.1872 3.12204L14.9325 4.97796ZM17.4285 3.97555C17.1817 4.07648 16.9083 3.98056 16.7819 3.74885L18.5377 2.79115C18.1714 2.11944 17.3579 1.84352 16.6712 2.12445L17.4285 3.97555ZM16.7941 3.77044L18.7941 7.23044L20.5256 6.22956L18.5256 2.76956L16.7941 3.77044ZM18.7989 7.23873C18.6646 7.01141 18.7326 6.7332 18.9202 6.58512L20.1595 8.15488C20.7271 7.7068 20.9151 6.88858 20.5208 6.22127L18.7989 7.23873ZM18.9285 6.57863L16.8185 8.20863L18.0412 9.79137L20.1512 8.16137L18.9285 6.57863ZM16.4323 9.06983L16.5023 10.0698L18.4974 9.93017L18.4274 8.93017L16.4323 9.06983ZM16.5023 9.93017L16.4323 10.9302L18.4274 11.0698L18.4974 10.0698L16.5023 9.93017ZM16.8185 11.7914L18.9285 13.4214L20.1512 11.8386L18.0412 10.2086L16.8185 11.7914ZM18.9202 13.4149C18.7326 13.2668 18.6646 12.9886 18.7989 12.7613L20.5208 13.7787C20.9151 13.1114 20.7271 12.2932 20.1595 11.8451L18.9202 13.4149ZM18.7941 12.7696L16.7941 16.2296L18.5256 17.2304L20.5256 13.7704L18.7941 12.7696ZM16.7819 16.2511C16.9083 16.0194 17.1817 15.9235 17.4285 16.0245L16.6712 17.8755C17.3579 18.1565 18.1714 17.8806 18.5377 17.2089L16.7819 16.2511ZM17.4225 16.022L14.9325 15.022L14.1872 16.878L16.6772 17.878L17.4225 16.022ZM13.9598 15.15C13.4829 15.5077 13.0214 15.794 12.501 16.0005L13.2387 17.8595C13.9783 17.566 14.5968 17.1723 15.1598 16.75L13.9598 15.15ZM11.8794 16.7917L11.5094 19.4417L13.4902 19.7183L13.8602 17.0683L11.8794 16.7917ZM11.5134 19.4156C11.5542 19.1713 11.7631 19 11.9998 19V21C12.7366 21 13.3655 20.4687 13.4862 19.7444L11.5134 19.4156ZM11.9998 19H7.99984V21H11.9998V19ZM8.25974 1.85964L7.88974 4.46964L9.86994 4.75036L10.2399 2.14036L8.25974 1.85964ZM8.67589 3.63102C7.25731 3.92656 6.0045 4.68284 5.09359 5.73572L6.60609 7.04428C7.23518 6.31716 8.10237 5.79344 9.08379 5.58898L8.67589 3.63102ZM6.24606 5.47184L3.83606 4.43184L3.04362 6.26816L5.45362 7.30816L6.24606 5.47184ZM2.57365 4.85028L1.82365 6.15028L3.55603 7.14972L4.30603 5.84972L2.57365 4.85028ZM2.09781 7.45592L4.20781 9.00592L5.39187 7.39408L3.28187 5.84408L2.09781 7.45592ZM3.85361 7.8765C3.38223 9.2553 3.38132 10.7539 3.85447 12.126L5.74521 11.474C5.41836 10.5261 5.41745 9.4847 5.74607 8.5235L3.85361 7.8765ZM4.20716 10.9946L2.08716 12.5546L3.27252 14.1654L5.39252 12.6054L4.20716 10.9946ZM1.81365 13.8597L2.56365 15.1597L4.29602 14.1603L3.54603 12.8603L1.81365 13.8597ZM3.8233 15.5793L6.2533 14.5393L5.46638 12.7007L3.03638 13.7407L3.8233 15.5793ZM5.10726 14.2785C6.01401 15.3148 7.25544 16.0745 8.67214 16.3603L9.06754 14.3997C8.10424 14.2055 7.24567 13.6852 6.61242 12.9615L5.10726 14.2785ZM7.87966 15.5198L8.24966 18.1398L10.23 17.8602L9.86001 15.2402L7.87966 15.5198ZM9.23984 19H10.7598V17H9.23984V19ZM11.7499 18.1404L12.1199 15.5304L10.1397 15.2496L9.76974 17.8596L11.7499 18.1404ZM11.3354 16.3686C12.7461 16.0723 13.9854 15.3151 14.8924 14.2785L13.3873 12.9615C12.7543 13.6849 11.8936 14.2077 10.9242 14.4114L11.3354 16.3686ZM13.7464 14.5393L16.1764 15.5793L16.9633 13.7407L14.5333 12.7007L13.7464 14.5393ZM17.436 15.1597L18.186 13.8597L16.4537 12.8603L15.7037 14.1603L17.436 15.1597ZM17.91 12.5527L15.79 11.0027L14.6096 12.6173L16.7296 14.1673L17.91 12.5527ZM16.1461 12.1335C16.6178 10.7538 16.6178 9.25621 16.1461 7.8765L14.2536 8.5235C14.5819 9.48379 14.5819 10.5262 14.2536 11.4865L16.1461 12.1335ZM15.7919 9.00592L17.9019 7.45592L16.7178 5.84408L14.6078 7.39408L15.7919 9.00592ZM18.176 6.15028L17.426 4.85028L15.6937 5.84972L16.4437 7.14972L18.176 6.15028ZM16.1636 4.43184L13.7536 5.47184L14.5461 7.30816L16.9561 6.26816L16.1636 4.43184ZM14.9061 5.73572C13.9954 4.68313 12.7406 3.92434 11.316 3.63942L10.9237 5.60058C11.8991 5.79566 12.7643 6.31687 13.3936 7.04428L14.9061 5.73572ZM12.11 4.48017L11.74 1.86017L9.75966 2.13983L10.1297 4.75983L12.11 4.48017ZM10.7498 1H9.24984V3H10.7498V1Z" fill="#112211" mask="url(#path-1-inside-1_18420_66)"/>
</svg>
