<svg width="18" height="20" viewBox="0 0 18 20" fill="none" xmlns="http://www.w3.org/2000/svg">
  <path d="M14.5 2V2.5H15H16C16.8322 2.5 17.5 3.17451 17.5 4V18C17.5 18.8339 16.8339 19.5 16 19.5H2C1.17451 19.5 0.5 18.8322 0.5 18V4C0.5 3.17614 1.17614 2.5 2 2.5H3H3.5V2V0.5H4.5V2V2.5H5H13H13.5V2V0.5H14.5V2ZM16 18.5H16.5V18V8V7.5H16H2H1.5V8V18V18.5H2H16ZM1.5 6V6.5H2H16H16.5V6V4V3.5H16H2H1.5V4V6ZM7.20645 14.6936L7.56 15.0471L7.91355 14.6936L12.4317 10.1755L12.7909 10.5314L7.5603 15.7532L5.09711 13.29L5.45 12.9371L7.20645 14.6936Z" fill="#112211" stroke="#A1A1A1"/>
</svg>
