<svg width="19" height="18" viewBox="0 0 19 18" fill="none" xmlns="http://www.w3.org/2000/svg">
<mask id="path-1-inside-1_18420_62" fill="white">
<path d="M14 18L11.25 15L12.41 13.84L14 15.43L17.59 11.84L18.75 13.25M9.8 18H2C0.89 18 0 17.11 0 16V2C0 0.89 0.89 0 2 0H16C17.11 0 18 0.89 18 2V9.8C17.39 9.45 16.72 9.2 16 9.08V2H2V16H9.08C9.2 16.72 9.45 17.39 9.8 18ZM9 14H4V12H9M11.68 10H4V8H14V9.08C13.15 9.22 12.37 9.54 11.68 10ZM14 6H4V4H14"/>
</mask>
<path d="M14 18L11.25 15L12.41 13.84L14 15.43L17.59 11.84L18.75 13.25M9.8 18H2C0.89 18 0 17.11 0 16V2C0 0.89 0.89 0 2 0H16C17.11 0 18 0.89 18 2V9.8C17.39 9.45 16.72 9.2 16 9.08V2H2V16H9.08C9.2 16.72 9.45 17.39 9.8 18ZM9 14H4V12H9M11.68 10H4V8H14V9.08C13.15 9.22 12.37 9.54 11.68 10ZM14 6H4V4H14" fill="#1B1B1B"/>
<path d="M11.25 15L10.5429 14.2929L9.86586 14.9699L10.5128 15.6757L11.25 15ZM12.41 13.84L13.1171 13.1329L12.41 12.4258L11.7029 13.1329L12.41 13.84ZM14 15.43L13.2929 16.1371L14 16.8442L14.7071 16.1371L14 15.43ZM17.59 11.84L18.3622 11.2047L17.6621 10.3537L16.8829 11.1329L17.59 11.84ZM9.8 18V19H11.5267L10.6674 17.5023L9.8 18ZM18 9.8L17.5023 10.6674L19 11.5267V9.8H18ZM16 9.08H15V9.92713L15.8356 10.0664L16 9.08ZM16 2H17V1H16V2ZM2 2V1H1V2H2ZM2 16H1V17H2V16ZM9.08 16L10.0664 15.8356L9.92713 15H9.08V16ZM4 14H3V15H4V14ZM4 12V11H3V12H4ZM11.68 10V11H11.9828L12.2347 10.8321L11.68 10ZM4 10H3V11H4V10ZM4 8V7H3V8H4ZM14 8H15V7H14V8ZM14 9.08L14.1625 10.0667L15 9.92877V9.08H14ZM4 6H3V7H4V6ZM4 4V3H3V4H4ZM14.7372 17.3243L11.9872 14.3243L10.5128 15.6757L13.2628 18.6757L14.7372 17.3243ZM11.9571 15.7071L13.1171 14.5471L11.7029 13.1329L10.5429 14.2929L11.9571 15.7071ZM11.7029 14.5471L13.2929 16.1371L14.7071 14.7229L13.1171 13.1329L11.7029 14.5471ZM14.7071 16.1371L18.2971 12.5471L16.8829 11.1329L13.2929 14.7229L14.7071 16.1371ZM16.8178 12.4753L17.9778 13.8853L19.5222 12.6147L18.3622 11.2047L16.8178 12.4753ZM9.8 17H2V19H9.8V17ZM2 17C1.44228 17 1 16.5577 1 16H-1C-1 17.6623 0.337715 19 2 19V17ZM1 16V2H-1V16H1ZM1 2C1 1.44228 1.44228 1 2 1V-1C0.337715 -1 -1 0.337715 -1 2H1ZM2 1H16V-1H2V1ZM16 1C16.5577 1 17 1.44228 17 2H19C19 0.337715 17.6623 -1 16 -1V1ZM17 2V9.8H19V2H17ZM18.4977 8.93263C17.791 8.52718 17.0088 8.23435 16.1644 8.09361L15.8356 10.0664C16.4312 10.1657 16.989 10.3728 17.5023 10.6674L18.4977 8.93263ZM17 9.08V2H15V9.08H17ZM16 1H2V3H16V1ZM1 2V16H3V2H1ZM2 17H9.08V15H2V17ZM8.09361 16.1644C8.23435 17.0088 8.52718 17.791 8.93263 18.4977L10.6674 17.5023C10.3728 16.989 10.1657 16.4312 10.0664 15.8356L8.09361 16.1644ZM9 13H4V15H9V13ZM5 14V12H3V14H5ZM4 13H9V11H4V13ZM11.68 9H4V11H11.68V9ZM5 10V8H3V10H5ZM4 9H14V7H4V9ZM13 8V9.08H15V8H13ZM13.8375 8.09329C12.8408 8.25746 11.9279 8.63285 11.1253 9.16795L12.2347 10.8321C12.8121 10.4471 13.4592 10.1825 14.1625 10.0667L13.8375 8.09329ZM14 5H4V7H14V5ZM5 6V4H3V6H5ZM4 5H14V3H4V5Z" fill="#112211" mask="url(#path-1-inside-1_18420_62)"/>
</svg>
